<svg xmlns="http://www.w3.org/2000/svg" viewBox="0 0 500 500"><g id="freepik--background-complete--inject-266"><circle cx="80.29" cy="167.57" r="30.74" style="fill:#ebebeb"></circle><path d="M108.64,162.31c.52,0,1.1.78,1.53,2.37a18.41,18.41,0,0,1,.24,6.87,27.42,27.42,0,0,1-3.32,9.79,28.77,28.77,0,0,1-20.52,14.45,27.54,27.54,0,0,1-10.33-.17,18.33,18.33,0,0,1-6.39-2.55c-1.35-.93-1.91-1.75-1.71-2.23.45-1.06,3.72-.47,8.6-.72A33.09,33.09,0,0,0,94,184.53a33,33,0,0,0,11.07-14.36C107,165.66,107.49,162.38,108.64,162.31Z" style="fill:#e0e0e0"></path><path d="M81.7,175a13.13,13.13,0,0,0,8.47-3.8A7.6,7.6,0,0,0,92.39,166a4.06,4.06,0,0,0-3.33-3.77,5.82,5.82,0,0,0-3.61,1.17A11.29,11.29,0,0,1,82,165.21c-1.8.41-3.65-.31-5.35-1s-3.53-1.47-5.35-1.14a3.5,3.5,0,0,0-2.93,2s-.92,2,.93,4.68A13.73,13.73,0,0,0,81.7,175Z" style="fill:#fff"></path><path d="M67.73,157.53a2.79,2.79,0,0,0-2.8-1.46,1.77,1.77,0,0,0-1,.32h0a3,3,0,0,0-1.13,2.88,2.69,2.69,0,0,0,3.43,1.94A2.78,2.78,0,0,0,67.73,157.53Z" style="fill:#fff"></path><path d="M97,157.63a2.8,2.8,0,0,0-2.8-1.47,1.86,1.86,0,0,0-1,.32l0,0h0a3,3,0,0,0-1.13,2.89,2.69,2.69,0,0,0,3.43,1.94A2.78,2.78,0,0,0,97,157.63Z" style="fill:#fff"></path><circle cx="398.24" cy="83.84" r="34.83" transform="translate(228.23 453.59) rotate(-77.2)" style="fill:#ebebeb"></circle><path d="M429.3,79.29c.52,0,1.1.88,1.52,2.67a21.16,21.16,0,0,1,.12,7.7,31.26,31.26,0,0,1-3.8,10.92,32.54,32.54,0,0,1-22.95,16.16,31.13,31.13,0,0,1-11.57-.09,21.49,21.49,0,0,1-7.21-2.71c-1.54-1-2.2-1.86-2-2.34.45-1.07,4.12-.26,9.71-.45a39.55,39.55,0,0,0,9.52-1.44,32.4,32.4,0,0,0,18.4-13,39.91,39.91,0,0,0,4.56-8.47C427.66,83.08,428.14,79.35,429.3,79.29Z" style="fill:#e0e0e0"></path><path d="M408.69,79.52c.1,0-.43,1.48-2.15,3.19a12.93,12.93,0,0,1-17.27.86c-1.88-1.53-2.55-2.91-2.45-3s1,1.08,2.89,2.37a13.19,13.19,0,0,0,16.34-.82C407.79,80.69,408.54,79.42,408.69,79.52Z" style="fill:#fff"></path><path d="M384,72.47a3.14,3.14,0,0,0-3.16-1.66,2,2,0,0,0-1.08.36l0,0h0a3.41,3.41,0,0,0-1.27,3.27,3,3,0,0,0,3.88,2.2A3.14,3.14,0,0,0,384,72.47Z" style="fill:#fff"></path><path d="M420.55,75.83a15.75,15.75,0,0,0-.58-2.65A5.56,5.56,0,0,0,418.28,71a5.19,5.19,0,0,0-6.3.11,5.49,5.49,0,0,0-1.61,2.27,16.45,16.45,0,0,0-.5,2.67c-.1.06-.66-1.06-.21-2.89a5.71,5.71,0,0,1,11-.19C421.18,74.75,420.65,75.88,420.55,75.83Z" style="fill:#fff"></path><path d="M389.42,441c-.92-3.63,1.48-7.25,4.16-9.86s5.87-4.95,7.27-8.42c2.28-5.61-.7-12.92,3.16-17.59,2.27-2.75,6.31-3.65,8.33-6.59a15.44,15.44,0,0,0,1.83-5.27,53.56,53.56,0,0,1,13.46-24.85,46.48,46.48,0,0,1-5.36,24c-1.57,2.94-3.49,5.81-4,9.1-.87,5.35,2.09,10.87.74,16.12-1.53,6-8.31,10-8.66,16.17-.3,5.22,4.23,9.84,3.86,15.06a14.1,14.1,0,0,1-2.36,6.19c-4.08,6.7-10.05,11.3-19.05,11.09l-11,.33Z" style="fill:#ebebeb"></path><path d="M379.52,466.73a8.83,8.83,0,0,1-3-.08,18.7,18.7,0,0,1-3.58-.92,15.25,15.25,0,0,1-4.41-2.45,6.18,6.18,0,0,1-1.8-2.44,11,11,0,0,1-.5-3.29A33.79,33.79,0,0,0,366,454a9.86,9.86,0,0,0-1.33-3.56c-1.29-2.29-3.43-4.46-4.11-7.57s-.18-6.35.35-9.66,1.05-6.91-.2-10.36-3.56-6.58-4.75-10.48-.59-8.15-.82-12.32a16.41,16.41,0,0,0-1.41-6.13c-.88-1.95-2.1-3.8-3.06-5.86-1.93-4.17-2.25-8.88-2.76-13.49q-.37-3.49-.75-7.05a34.39,34.39,0,0,0-1.19-7.06,58.77,58.77,0,0,0-2.6-6.84,22.8,22.8,0,0,1-1.25-3.57,35.27,35.27,0,0,1-.34-3.8,44.36,44.36,0,0,1,.34-7.63c.31-2.54.79-5.06,1.07-7.61l.06-.44.06-.51.45.23a17.12,17.12,0,0,1,5.9,5,26.81,26.81,0,0,1,3.61,6.75c1.82,4.74,2.45,9.71,3.35,14.45s2.05,9.41,4.46,13.37c1.2,2,2.65,3.77,3.92,5.69a15.78,15.78,0,0,1,2.7,6.3c.62,4.67-2,8.75-1.46,12.88a14.39,14.39,0,0,0,2,5.74c1,1.77,2.16,3.41,3.27,5.06a32.81,32.81,0,0,1,2.93,5.1,16.25,16.25,0,0,1,1.32,5.53c.25,3.72-.3,7.25-.05,10.58a24.43,24.43,0,0,0,2.67,9.08c1.32,2.72,2.79,5.18,4,7.57a37,37,0,0,1,1.65,3.52,17.48,17.48,0,0,1,.95,3.49,22.23,22.23,0,0,1,.05,6.3,16,16,0,0,1-3.2,8,7.83,7.83,0,0,1-.9,1,4.55,4.55,0,0,1-.73.62c-.41.3-.63.43-.63.43a13.11,13.11,0,0,0,2.14-2.1,15.85,15.85,0,0,0,3-7.95,21.65,21.65,0,0,0-.1-6.2,17.12,17.12,0,0,0-1-3.41c-.46-1.14-1-2.3-1.66-3.48-1.24-2.37-2.72-4.82-4.07-7.55a24.81,24.81,0,0,1-2.77-9.24c-.27-3.41.27-6.94,0-10.58a15.78,15.78,0,0,0-1.3-5.34,32.16,32.16,0,0,0-2.9-5c-1.11-1.63-2.29-3.28-3.31-5.09a14.92,14.92,0,0,1-2.07-6c-.5-4.41,2.07-8.52,1.43-12.86a15,15,0,0,0-2.61-6c-1.25-1.89-2.71-3.69-3.94-5.71-2.48-4.07-3.67-8.82-4.56-13.59s-1.54-9.69-3.33-14.34a26.25,26.25,0,0,0-3.51-6.56,16.52,16.52,0,0,0-5.66-4.84l.51-.27c0,.14,0,.29,0,.44-.29,2.58-.77,5.1-1.08,7.62a44,44,0,0,0-.33,7.51,36.26,36.26,0,0,0,.31,3.68,22.9,22.9,0,0,0,1.22,3.45,62,62,0,0,1,2.62,6.91,35.21,35.21,0,0,1,1.2,7.18c.25,2.37.5,4.73.74,7.05.5,4.64.82,9.27,2.68,13.29.92,2,2.15,3.86,3.06,5.88a17.15,17.15,0,0,1,1.44,6.36c.21,4.25-.36,8.41.77,12.19s3.51,6.9,4.7,10.46.72,7.33.18,10.62-1.11,6.54-.41,9.48,2.7,5.12,4,7.48a10,10,0,0,1,1.35,3.69,30.53,30.53,0,0,1,.21,3.61,10.92,10.92,0,0,0,.46,3.21,6,6,0,0,0,1.69,2.33,15.08,15.08,0,0,0,4.31,2.46,18.79,18.79,0,0,0,3.52,1,14.94,14.94,0,0,0,2.25.23C379.25,466.72,379.52,466.73,379.52,466.73Z" style="fill:#e0e0e0"></path><path d="M345.41,336.63s0,.11.11.34.14.59.24,1c.21.87.46,2.18.87,3.82s1.41,3.49,2.25,5.78a80.91,80.91,0,0,1,2.58,7.83c.82,2.95,1.55,6.22,2.31,9.72s1.56,7.25,3.47,10.79c.89,1.8,1.9,3.61,2.7,5.6a26.37,26.37,0,0,1,1.55,6.34,126.56,126.56,0,0,0,2.3,13.35c2.16,9.05,4.22,17.67,6.09,25.52L375,447.52c1.42,5.88,2.57,10.67,3.38,14,.37,1.62.67,2.9.89,3.83.08.4.15.73.21,1a1.72,1.72,0,0,1,0,.34,1.17,1.17,0,0,1-.12-.33c-.08-.26-.17-.58-.28-1l-1-3.79c-.86-3.36-2.09-8.13-3.6-14s-3.28-13-5.25-20.78l-6.15-25.52a125.5,125.5,0,0,1-2.3-13.41,25.5,25.5,0,0,0-1.49-6.18c-.77-1.94-1.76-3.74-2.66-5.56-1.92-3.61-2.7-7.47-3.45-11s-1.43-6.77-2.22-9.71-1.63-5.56-2.47-7.82-1.75-4.15-2.15-5.84-.57-3-.74-3.87c-.07-.41-.13-.74-.17-1A1.3,1.3,0,0,1,345.41,336.63Z" style="fill:#e0e0e0"></path><path d="M377.57,466.76c-7.18-4.33-9.17-17.33-6.12-25.14s8.35-14.92,9.2-23.25c.66-6.41-1.4-13,.13-19.26,2.06-8.44,10.36-14.94,10.31-23.64,0-4.87-2.77-9.48-2.52-14.35.3-6,4.91-10.69,7.78-15.94,4.4-8,4.74-17.55,6.28-26.58s5-18.68,13.07-23.08c1.14,7.68,3.12,12.94,2.43,23.33-.25,3.73-4.62,10.85-5.26,19-.38,4.88-.65,9.78-1,14.67s-.65,9.6-2.38,14.05c-1.33,3.4-3.45,6.49-4.44,10-1.86,6.62.49,13.81-1,20.52-1.28,5.68-5.25,10.56-6.08,16.32-1.18,8.1,4,16.56,1.29,24.28-1.36,3.83-4.53,6.89-5.45,10.85-.71,3.07,0,6.32-.62,9.41-1,5-10.55,8.78-15.62,8.44" style="fill:#e0e0e0"></path><path d="M413.67,303.12a2.05,2.05,0,0,1,0,.44c0,.32-.09.73-.17,1.26-.17,1.1-.36,2.73-.75,4.83s-1.52,4.49-2.4,7.35-1.87,6.16-2.7,9.85-1.55,7.78-2.3,12.18-1.56,9.19-3.77,13.76c-1,2.29-2.17,4.59-3,7a31.88,31.88,0,0,0-1.56,7.77,156,156,0,0,1-2.21,16.77c-2.27,11.35-4.43,22.17-6.4,32s-3.94,18.63-5.51,26.07S380,455.82,379.05,460c-.45,2-.81,3.63-1.06,4.77-.12.51-.22.92-.3,1.24a2.17,2.17,0,0,1-.12.41,2.74,2.74,0,0,1,.05-.43c.06-.32.14-.73.23-1.25.22-1.14.53-2.75.93-4.79l3.55-17.61c1.53-7.45,3.35-16.29,5.36-26.1s4.1-20.65,6.35-32a160.11,160.11,0,0,0,2.21-16.71,32.2,32.2,0,0,1,1.62-7.93c.89-2.51,2.05-4.81,3.07-7.09,2.2-4.5,3-9.21,3.79-13.59s1.51-8.49,2.39-12.19,1.84-7,2.81-9.86,2.07-5.23,2.51-7.29.67-3.7.88-4.8l.24-1.24A2.12,2.12,0,0,1,413.67,303.12Z" style="fill:#ebebeb"></path></g><g id="freepik--smiley-faces--inject-266"><circle cx="177.88" cy="66.38" r="40.07" style="fill:#B99F92"></circle><g style="opacity:0.30000000000000004"><path d="M214.84,62.37c.34,0,.76,1,1,3.05a28.29,28.29,0,0,1-.42,8.55,37.29,37.29,0,0,1-1.59,5.76,40.19,40.19,0,0,1-3,6.22,37.17,37.17,0,0,1-25.3,17.82,40.32,40.32,0,0,1-6.86.7,37.7,37.7,0,0,1-6-.44,28.36,28.36,0,0,1-8.19-2.49c-1.8-.92-2.66-1.67-2.53-2,.3-.76,4.4.65,11.06.81a46.3,46.3,0,0,0,5.39-.21,44.09,44.09,0,0,0,6-1.07,36.93,36.93,0,0,0,22.27-15.69,43.84,43.84,0,0,0,3.06-5.33,50.33,50.33,0,0,0,2-5C214,66.73,214,62.39,214.84,62.37Z"></path></g><g style="opacity:0.30000000000000004"><path d="M176.06,29.36c0,.44-3.52.23-8.83,1.61a35.66,35.66,0,0,0-8.81,3.62A32.3,32.3,0,0,0,143.82,52a36,36,0,0,0-2,9.31c-.43,5.46.39,8.88,0,9-.16,0-.55-.76-1-2.31a26.52,26.52,0,0,1-.82-6.74,32.56,32.56,0,0,1,1.59-10,32.05,32.05,0,0,1,15.71-18.74,32.44,32.44,0,0,1,9.58-3.32,26.49,26.49,0,0,1,6.78-.37C175.22,29,176.08,29.19,176.06,29.36Z" style="fill:#fff"></path></g><g style="opacity:0.30000000000000004"><path d="M144.93,80.08c-.59.4-1.94-.59-2.56-2.41s-.18-3.44.52-3.49,1.42,1.16,1.94,2.64S145.54,79.69,144.93,80.08Z" style="fill:#fff"></path></g><path d="M189.9,61.41c.09,0-.53,1.68-2.51,3.63a14.88,14.88,0,0,1-19.81,1c-2.15-1.74-2.94-3.31-2.85-3.35s1.13,1.26,3.29,2.76a15.13,15.13,0,0,0,18.88-.94C188.9,62.78,189.75,61.31,189.9,61.41Z" style="fill:#fff"></path><path d="M161.5,53.3a3.62,3.62,0,0,0-3.64-1.92,2.39,2.39,0,0,0-1.24.42l0,0h0a3.9,3.9,0,0,0-1.46,3.76,3.51,3.51,0,0,0,4.46,2.53A3.61,3.61,0,0,0,161.5,53.3Z" style="fill:#fff"></path><path d="M199.63,53.42A3.62,3.62,0,0,0,196,51.51a2.36,2.36,0,0,0-1.24.42h0a3.94,3.94,0,0,0-1.47,3.76,3.51,3.51,0,0,0,4.47,2.53A3.61,3.61,0,0,0,199.63,53.42Z" style="fill:#fff"></path><circle cx="143.05" cy="248.51" r="34.83" transform="translate(-131.39 331.59) rotate(-76.92)" style="fill:#B99F92"></circle><g style="opacity:0.30000000000000004"><path d="M175.17,245c.52,0,1.11.89,1.53,2.68a21.62,21.62,0,0,1,.12,7.7A31.16,31.16,0,0,1,173,266.32a32.55,32.55,0,0,1-22.94,16.16,31.12,31.12,0,0,1-11.57-.09,21.62,21.62,0,0,1-7.21-2.71c-1.54-1-2.21-1.86-2-2.34.44-1.07,4.12-.26,9.71-.45a40.13,40.13,0,0,0,9.52-1.44,32.4,32.4,0,0,0,18.4-13,39.83,39.83,0,0,0,4.55-8.47C173.53,248.82,174,245.08,175.17,245Z"></path></g><g style="opacity:0.30000000000000004"><path d="M141.47,216.34c0,.42-3.06.29-7.65,1.52a31.2,31.2,0,0,0-7.6,3.16,28.22,28.22,0,0,0-12.62,15,31.45,31.45,0,0,0-1.78,8c-.41,4.73.26,7.71-.16,7.8-.27.1-1.62-2.8-1.68-7.87a28,28,0,0,1,1.35-8.74,27.84,27.84,0,0,1,13.73-16.38,28.08,28.08,0,0,1,8.37-2.86C138.43,215.23,141.52,216.06,141.47,216.34Z" style="fill:#fff"></path></g><g style="opacity:0.30000000000000004"><path d="M114.42,260.42c-.59.4-1.84-.44-2.39-2s-.09-3,.62-3.09,1.4,1,1.84,2.24S115,260,114.42,260.42Z" style="fill:#fff"></path></g><path d="M153.5,244.19c.1,0-.43,1.48-2.15,3.19a12.91,12.91,0,0,1-17.27.86c-1.88-1.53-2.55-2.91-2.46-3s1,1.08,2.9,2.37a13.21,13.21,0,0,0,16.34-.81C152.6,245.36,153.35,244.09,153.5,244.19Z" style="fill:#fff"></path><path d="M128.82,237.14a3.14,3.14,0,0,0-3.17-1.66,2,2,0,0,0-1.07.36l0,0h0a3.4,3.4,0,0,0-1.27,3.27,3,3,0,0,0,3.88,2.2A3.14,3.14,0,0,0,128.82,237.14Z" style="fill:#fff"></path><path d="M165.36,240.5a16.52,16.52,0,0,0-.59-2.65,5.44,5.44,0,0,0-1.68-2.22,5.19,5.19,0,0,0-6.3.11,5.49,5.49,0,0,0-1.61,2.27,16.45,16.45,0,0,0-.5,2.67c-.1.06-.66-1.05-.21-2.89a5.78,5.78,0,0,1,1.69-2.78,5.88,5.88,0,0,1,7.53-.13,5.78,5.78,0,0,1,1.78,2.72C166,239.42,165.46,240.55,165.36,240.5Z" style="fill:#fff"></path><circle cx="370.07" cy="299" r="33.47" style="fill:#B99F92"></circle><g style="opacity:0.30000000000000004"><path d="M400.94,295.65c.52,0,1.1.85,1.53,2.57a20.6,20.6,0,0,1,.16,7.42A29.75,29.75,0,0,1,399,316.19a31.22,31.22,0,0,1-22.13,15.59,29.93,29.93,0,0,1-11.16-.12,20.35,20.35,0,0,1-6.94-2.65c-1.48-1-2.11-1.82-1.91-2.3.45-1.07,4-.34,9.35-.55a38.52,38.52,0,0,0,9.1-1.41,31.23,31.23,0,0,0,17.6-12.39,38.43,38.43,0,0,0,4.39-8.1C399.29,299.29,399.79,295.71,400.94,295.65Z"></path></g><g style="opacity:0.30000000000000004"><path d="M368.55,268.07c0,.43-2.94.31-7.34,1.5a30.26,30.26,0,0,0-7.3,3.05,27.11,27.11,0,0,0-12.1,14.44,29.94,29.94,0,0,0-1.72,7.71c-.4,4.54.23,7.4-.19,7.5-.27.09-1.58-2.69-1.65-7.57a26.71,26.71,0,0,1,1.29-8.42,26.75,26.75,0,0,1,13.21-15.76,26.71,26.71,0,0,1,8.07-2.75C365.63,267,368.6,267.79,368.55,268.07Z" style="fill:#fff"></path></g><g style="opacity:0.30000000000000004"><path d="M342.55,310.45c-.59.39-1.81-.41-2.34-1.95s-.07-2.93.64-3,1.39.93,1.82,2.14S343.16,310.05,342.55,310.45Z" style="fill:#fff"></path></g><path d="M371.6,307.11a14.31,14.31,0,0,0,9.23-4.13c1.34-1.46,2.57-3.68,2.42-5.65a4.44,4.44,0,0,0-3.62-4.12,6.38,6.38,0,0,0-3.94,1.28,12.14,12.14,0,0,1-3.72,1.94c-2,.44-4-.34-5.83-1.12s-3.84-1.6-5.82-1.25a3.83,3.83,0,0,0-3.19,2.18s-1,2.18,1,5.1A14.92,14.92,0,0,0,371.6,307.11Z" style="fill:#fff"></path><path d="M356.39,288.07a3,3,0,0,0-3-1.6,2,2,0,0,0-1,.35l0,0h0a3.3,3.3,0,0,0-1.23,3.15,3,3,0,0,0,3.73,2.11A3,3,0,0,0,356.39,288.07Z" style="fill:#fff"></path><path d="M388.24,288.17a3,3,0,0,0-3-1.59,2,2,0,0,0-1,.34l0,0h0a3.28,3.28,0,0,0-1.23,3.14,2.93,2.93,0,0,0,3.73,2.11A3,3,0,0,0,388.24,288.17Z" style="fill:#fff"></path></g></svg>